<svg xmlns="http://www.w3.org/2000/svg" xmlns:xlink="http://www.w3.org/1999/xlink" width="2000" zoomAndPan="magnify" viewBox="0 0 1500 1499.999933" height="2000" preserveAspectRatio="xMidYMid meet" version="1.0"><defs><g/><clipPath id="66fd0eeb2e"><rect x="0" width="600" y="0" height="441"/></clipPath><clipPath id="5a19f23af5"><rect x="0" width="672" y="0" height="443"/></clipPath><clipPath id="e3c21f0b8e"><path d="M 703.363281 880 L 1437.613281 880 L 1437.613281 1065 L 703.363281 1065 Z M 703.363281 880 " clip-rule="nonzero"/></clipPath></defs><g transform="matrix(1, 0, 0, 1, 91, 637)"><g clip-path="url(#66fd0eeb2e)"><g fill="#000000" fill-opacity="1"><g transform="translate(1.111865, 317.109911)"><g><path d="M 127.953125 -295.265625 C 143.648438 -295.265625 158.992188 -292.976562 173.984375 -288.40625 C 188.984375 -283.832031 200.117188 -279.320312 207.390625 -274.875 L 217.9375 -267.84375 L 191.21875 -215.125 C 189.101562 -216.53125 186.171875 -218.34375 182.421875 -220.5625 C 178.671875 -222.789062 171.640625 -225.78125 161.328125 -229.53125 C 151.023438 -233.28125 141.421875 -235.15625 132.515625 -235.15625 C 121.503906 -235.15625 113.007812 -232.8125 107.03125 -228.125 C 101.050781 -223.4375 98.0625 -217.109375 98.0625 -209.140625 C 98.0625 -205.160156 99.46875 -201.46875 102.28125 -198.0625 C 105.09375 -194.664062 109.894531 -191.035156 116.6875 -187.171875 C 123.488281 -183.304688 129.46875 -180.203125 134.625 -177.859375 C 139.78125 -175.515625 147.75 -172 158.53125 -167.3125 C 177.269531 -159.34375 193.257812 -148.503906 206.5 -134.796875 C 219.738281 -121.085938 226.359375 -105.5625 226.359375 -88.21875 C 226.359375 -71.582031 223.367188 -57.054688 217.390625 -44.640625 C 211.421875 -32.222656 203.222656 -22.5 192.796875 -15.46875 C 182.367188 -8.4375 170.828125 -3.222656 158.171875 0.171875 C 145.515625 3.566406 131.804688 5.265625 117.046875 5.265625 C 104.390625 5.265625 91.96875 3.976562 79.78125 1.40625 C 67.601562 -1.164062 57.410156 -4.382812 49.203125 -8.25 C 41.003906 -12.125 33.625 -15.9375 27.0625 -19.6875 C 20.5 -23.4375 15.695312 -26.597656 12.65625 -29.171875 L 8.078125 -33.046875 L 41.125 -88.578125 C 43.9375 -86.234375 47.800781 -83.242188 52.71875 -79.609375 C 57.644531 -75.984375 66.375 -71.125 78.90625 -65.03125 C 91.445312 -58.9375 102.519531 -55.890625 112.125 -55.890625 C 140.007812 -55.890625 153.953125 -65.378906 153.953125 -84.359375 C 153.953125 -88.335938 152.957031 -92.023438 150.96875 -95.421875 C 148.976562 -98.828125 145.460938 -102.226562 140.421875 -105.625 C 135.378906 -109.019531 130.925781 -111.710938 127.0625 -113.703125 C 123.195312 -115.703125 116.867188 -118.75 108.078125 -122.84375 C 99.296875 -126.945312 92.796875 -130.050781 88.578125 -132.15625 C 71.003906 -140.832031 57.410156 -151.671875 47.796875 -164.671875 C 38.191406 -177.679688 33.390625 -191.6875 33.390625 -206.6875 C 33.390625 -232.695312 42.992188 -253.960938 62.203125 -270.484375 C 81.421875 -287.003906 103.335938 -295.265625 127.953125 -295.265625 Z M 127.953125 -295.265625 "/></g></g></g><g fill="#000000" fill-opacity="1"><g transform="translate(224.309446, 317.109911)"><g><path d="M 127.953125 -295.265625 C 143.648438 -295.265625 158.992188 -292.976562 173.984375 -288.40625 C 188.984375 -283.832031 200.117188 -279.320312 207.390625 -274.875 L 217.9375 -267.84375 L 191.21875 -215.125 C 189.101562 -216.53125 186.171875 -218.34375 182.421875 -220.5625 C 178.671875 -222.789062 171.640625 -225.78125 161.328125 -229.53125 C 151.023438 -233.28125 141.421875 -235.15625 132.515625 -235.15625 C 121.503906 -235.15625 113.007812 -232.8125 107.03125 -228.125 C 101.050781 -223.4375 98.0625 -217.109375 98.0625 -209.140625 C 98.0625 -205.160156 99.46875 -201.46875 102.28125 -198.0625 C 105.09375 -194.664062 109.894531 -191.035156 116.6875 -187.171875 C 123.488281 -183.304688 129.46875 -180.203125 134.625 -177.859375 C 139.78125 -175.515625 147.75 -172 158.53125 -167.3125 C 177.269531 -159.34375 193.257812 -148.503906 206.5 -134.796875 C 219.738281 -121.085938 226.359375 -105.5625 226.359375 -88.21875 C 226.359375 -71.582031 223.367188 -57.054688 217.390625 -44.640625 C 211.421875 -32.222656 203.222656 -22.5 192.796875 -15.46875 C 182.367188 -8.4375 170.828125 -3.222656 158.171875 0.171875 C 145.515625 3.566406 131.804688 5.265625 117.046875 5.265625 C 104.390625 5.265625 91.96875 3.976562 79.78125 1.40625 C 67.601562 -1.164062 57.410156 -4.382812 49.203125 -8.25 C 41.003906 -12.125 33.625 -15.9375 27.0625 -19.6875 C 20.5 -23.4375 15.695312 -26.597656 12.65625 -29.171875 L 8.078125 -33.046875 L 41.125 -88.578125 C 43.9375 -86.234375 47.800781 -83.242188 52.71875 -79.609375 C 57.644531 -75.984375 66.375 -71.125 78.90625 -65.03125 C 91.445312 -58.9375 102.519531 -55.890625 112.125 -55.890625 C 140.007812 -55.890625 153.953125 -65.378906 153.953125 -84.359375 C 153.953125 -88.335938 152.957031 -92.023438 150.96875 -95.421875 C 148.976562 -98.828125 145.460938 -102.226562 140.421875 -105.625 C 135.378906 -109.019531 130.925781 -111.710938 127.0625 -113.703125 C 123.195312 -115.703125 116.867188 -118.75 108.078125 -122.84375 C 99.296875 -126.945312 92.796875 -130.050781 88.578125 -132.15625 C 71.003906 -140.832031 57.410156 -151.671875 47.796875 -164.671875 C 38.191406 -177.679688 33.390625 -191.6875 33.390625 -206.6875 C 33.390625 -232.695312 42.992188 -253.960938 62.203125 -270.484375 C 81.421875 -287.003906 103.335938 -295.265625 127.953125 -295.265625 Z M 127.953125 -295.265625 "/></g></g></g><g fill="#000000" fill-opacity="1"><g transform="translate(447.507027, 317.109911)"><g><path d="M 147.28125 -289.984375 L 147.28125 -81.90625 C 147.28125 -53.550781 139.488281 -31.929688 123.90625 -17.046875 C 108.320312 -2.171875 86 5.265625 56.9375 5.265625 C 49.207031 5.265625 41.59375 4.328125 34.09375 2.453125 C 26.59375 0.585938 20.265625 -1.691406 15.109375 -4.390625 C 9.953125 -7.085938 5.320312 -9.84375 1.21875 -12.65625 C -2.875 -15.46875 -5.859375 -17.8125 -7.734375 -19.6875 L -10.890625 -22.5 L 10.1875 -77.6875 C 24.019531 -64.5625 36.554688 -58 47.796875 -58 C 57.878906 -58 65.96875 -61.335938 72.0625 -68.015625 C 78.15625 -74.691406 81.203125 -84.941406 81.203125 -98.765625 L 81.203125 -289.984375 Z M 147.28125 -289.984375 "/></g></g></g></g></g><g transform="matrix(1, 0, 0, 1, 683, 543)"><g clip-path="url(#5a19f23af5)"><g fill="#000000" fill-opacity="1"><g transform="translate(4.421732, 328.035419)"><g><path d="M 87.3125 2.90625 C 75.0625 2.90625 64.800781 0.703125 56.53125 -3.703125 C 48.269531 -8.109375 42.097656 -14.550781 38.015625 -23.03125 C 33.929688 -31.519531 31.890625 -41.882812 31.890625 -54.125 L 31.890625 -136.28125 L 10.3125 -136.28125 C 6.65625 -136.28125 3.859375 -137.191406 1.921875 -139.015625 C -0.00390625 -140.835938 -0.96875 -143.363281 -0.96875 -146.59375 C -0.96875 -149.8125 -0.00390625 -152.28125 1.921875 -154 C 3.859375 -155.71875 6.65625 -156.578125 10.3125 -156.578125 L 31.890625 -156.578125 L 31.890625 -193.625 C 31.890625 -197.914062 33.070312 -201.1875 35.4375 -203.4375 C 37.800781 -205.695312 41.023438 -206.828125 45.109375 -206.828125 C 49.179688 -206.828125 52.34375 -205.695312 54.59375 -203.4375 C 56.851562 -201.1875 57.984375 -197.914062 57.984375 -193.625 L 57.984375 -156.578125 L 98.578125 -156.578125 C 102.234375 -156.578125 105.023438 -155.71875 106.953125 -154 C 108.890625 -152.28125 109.859375 -149.8125 109.859375 -146.59375 C 109.859375 -143.363281 108.890625 -140.835938 106.953125 -139.015625 C 105.023438 -137.191406 102.234375 -136.28125 98.578125 -136.28125 L 57.984375 -136.28125 L 57.984375 -56.703125 C 57.984375 -44.460938 60.5625 -35.171875 65.71875 -28.828125 C 70.875 -22.492188 79.253906 -19.328125 90.859375 -19.328125 C 94.929688 -19.328125 98.414062 -19.753906 101.3125 -20.609375 C 104.21875 -21.472656 106.640625 -21.90625 108.578125 -21.90625 C 110.503906 -22.125 112.113281 -21.476562 113.40625 -19.96875 C 114.695312 -18.46875 115.34375 -15.894531 115.34375 -12.25 C 115.34375 -9.664062 114.859375 -7.300781 113.890625 -5.15625 C 112.921875 -3.007812 111.253906 -1.503906 108.890625 -0.640625 C 106.316406 0.210938 102.9375 1.015625 98.75 1.765625 C 94.5625 2.523438 90.75 2.90625 87.3125 2.90625 Z M 87.3125 2.90625 "/></g></g></g><g fill="#000000" fill-opacity="1"><g transform="translate(96.562501, 328.035419)"><g><path d="M 37.375 1.609375 C 33.070312 1.609375 29.847656 0.375 27.703125 -2.09375 C 25.554688 -4.5625 24.484375 -8.050781 24.484375 -12.5625 L 24.484375 -144.328125 C 24.484375 -148.835938 25.554688 -152.273438 27.703125 -154.640625 C 29.847656 -157.003906 33.070312 -158.1875 37.375 -158.1875 C 41.457031 -158.1875 44.675781 -157.003906 47.03125 -154.640625 C 49.394531 -152.273438 50.578125 -148.835938 50.578125 -144.328125 L 50.578125 -12.5625 C 50.578125 -8.050781 49.445312 -4.5625 47.1875 -2.09375 C 44.9375 0.375 41.664062 1.609375 37.375 1.609375 Z M 37.375 -194.265625 C 32 -194.265625 27.804688 -195.710938 24.796875 -198.609375 C 21.796875 -201.515625 20.296875 -205.4375 20.296875 -210.375 C 20.296875 -215.53125 21.796875 -219.453125 24.796875 -222.140625 C 27.804688 -224.828125 32 -226.171875 37.375 -226.171875 C 42.957031 -226.171875 47.195312 -224.828125 50.09375 -222.140625 C 53 -219.453125 54.453125 -215.53125 54.453125 -210.375 C 54.453125 -205.4375 53 -201.515625 50.09375 -198.609375 C 47.195312 -195.710938 42.957031 -194.265625 37.375 -194.265625 Z M 37.375 -194.265625 "/></g></g></g><g fill="#000000" fill-opacity="1"><g transform="translate(150.686947, 328.035419)"><g><path d="M 38.015625 2.25 C 33.722656 2.25 30.5 1.070312 28.34375 -1.28125 C 26.195312 -3.644531 25.125 -6.976562 25.125 -11.28125 L 25.125 -145.625 C 25.125 -149.914062 26.195312 -153.1875 28.34375 -155.4375 C 30.5 -157.695312 33.613281 -158.828125 37.6875 -158.828125 C 41.769531 -158.828125 44.9375 -157.695312 47.1875 -155.4375 C 49.445312 -153.1875 50.578125 -149.914062 50.578125 -145.625 L 50.578125 -117.265625 L 47.03125 -121.78125 C 51.113281 -133.8125 57.71875 -143.097656 66.84375 -149.640625 C 75.976562 -156.191406 86.878906 -159.46875 99.546875 -159.46875 C 112.867188 -159.46875 123.660156 -156.300781 131.921875 -149.96875 C 140.191406 -143.632812 145.722656 -133.8125 148.515625 -120.5 L 143.6875 -120.5 C 147.550781 -132.519531 154.476562 -142.019531 164.46875 -149 C 174.457031 -155.976562 186.109375 -159.46875 199.421875 -159.46875 C 211.234375 -159.46875 220.953125 -157.210938 228.578125 -152.703125 C 236.203125 -148.191406 241.945312 -141.375 245.8125 -132.25 C 249.675781 -123.125 251.609375 -111.582031 251.609375 -97.625 L 251.609375 -11.28125 C 251.609375 -6.976562 250.476562 -3.644531 248.21875 -1.28125 C 245.96875 1.070312 242.695312 2.25 238.40625 2.25 C 234.320312 2.25 231.148438 1.070312 228.890625 -1.28125 C 226.640625 -3.644531 225.515625 -6.976562 225.515625 -11.28125 L 225.515625 -96.328125 C 225.515625 -110.722656 223.046875 -121.300781 218.109375 -128.0625 C 213.171875 -134.832031 204.796875 -138.21875 192.984375 -138.21875 C 180.097656 -138.21875 169.945312 -133.757812 162.53125 -124.84375 C 155.125 -115.925781 151.421875 -103.84375 151.421875 -88.59375 L 151.421875 -11.28125 C 151.421875 -6.976562 150.289062 -3.644531 148.03125 -1.28125 C 145.78125 1.070312 142.507812 2.25 138.21875 2.25 C 134.132812 2.25 130.960938 1.070312 128.703125 -1.28125 C 126.453125 -3.644531 125.328125 -6.976562 125.328125 -11.28125 L 125.328125 -96.328125 C 125.328125 -110.722656 122.800781 -121.300781 117.75 -128.0625 C 112.707031 -134.832031 104.382812 -138.21875 92.78125 -138.21875 C 79.894531 -138.21875 69.742188 -133.757812 62.328125 -124.84375 C 54.921875 -115.925781 51.21875 -103.84375 51.21875 -88.59375 L 51.21875 -11.28125 C 51.21875 -2.257812 46.816406 2.25 38.015625 2.25 Z M 38.015625 2.25 "/></g></g></g><g fill="#000000" fill-opacity="1"><g transform="translate(405.846716, 328.035419)"><g><path d="M 95.046875 2.90625 C 78.503906 2.90625 64.269531 -0.367188 52.34375 -6.921875 C 40.425781 -13.472656 31.191406 -22.765625 24.640625 -34.796875 C 18.085938 -46.828125 14.8125 -61.21875 14.8125 -77.96875 C 14.8125 -94.289062 18.035156 -108.519531 24.484375 -120.65625 C 30.929688 -132.789062 39.789062 -142.289062 51.0625 -149.15625 C 62.34375 -156.03125 75.390625 -159.46875 90.203125 -159.46875 C 100.734375 -159.46875 110.1875 -157.695312 118.5625 -154.15625 C 126.9375 -150.613281 134.078125 -145.515625 139.984375 -138.859375 C 145.890625 -132.203125 150.398438 -124.144531 153.515625 -114.6875 C 156.628906 -105.238281 158.1875 -94.609375 158.1875 -82.796875 C 158.1875 -79.359375 157.21875 -76.832031 155.28125 -75.21875 C 153.351562 -73.613281 150.5625 -72.8125 146.90625 -72.8125 L 34.796875 -72.8125 L 34.796875 -89.890625 L 140.796875 -89.890625 L 135.640625 -85.703125 C 135.640625 -97.296875 133.921875 -107.117188 130.484375 -115.171875 C 127.046875 -123.234375 122.050781 -129.410156 115.5 -133.703125 C 108.945312 -137.992188 100.734375 -140.140625 90.859375 -140.140625 C 79.898438 -140.140625 70.609375 -137.613281 62.984375 -132.5625 C 55.359375 -127.519531 49.613281 -120.539062 45.75 -111.625 C 41.882812 -102.71875 39.953125 -92.359375 39.953125 -80.546875 L 39.953125 -78.609375 C 39.953125 -58.847656 44.726562 -43.8125 54.28125 -33.5 C 63.84375 -23.195312 77.429688 -18.046875 95.046875 -18.046875 C 102.347656 -18.046875 109.59375 -19.007812 116.78125 -20.9375 C 123.976562 -22.875 131.015625 -26.097656 137.890625 -30.609375 C 140.898438 -32.535156 143.640625 -33.445312 146.109375 -33.34375 C 148.578125 -33.238281 150.5625 -32.488281 152.0625 -31.09375 C 153.570312 -29.695312 154.59375 -27.976562 155.125 -25.9375 C 155.664062 -23.894531 155.453125 -21.691406 154.484375 -19.328125 C 153.515625 -16.960938 151.632812 -14.921875 148.84375 -13.203125 C 141.757812 -8.054688 133.382812 -4.082031 123.71875 -1.28125 C 114.050781 1.507812 104.492188 2.90625 95.046875 2.90625 Z M 95.046875 2.90625 "/></g></g></g><g fill="#000000" fill-opacity="1"><g transform="translate(556.622755, 328.035419)"><g><path d="M 37.6875 2.25 C 33.394531 2.25 30.117188 1.070312 27.859375 -1.28125 C 25.609375 -3.644531 24.484375 -6.976562 24.484375 -11.28125 L 24.484375 -145.625 C 24.484375 -149.914062 25.554688 -153.1875 27.703125 -155.4375 C 29.847656 -157.695312 32.960938 -158.828125 37.046875 -158.828125 C 41.128906 -158.828125 44.296875 -157.695312 46.546875 -155.4375 C 48.804688 -153.1875 49.9375 -149.914062 49.9375 -145.625 L 49.9375 -119.53125 L 46.71875 -119.53125 C 50.15625 -132.195312 56.703125 -141.96875 66.359375 -148.84375 C 76.023438 -155.71875 87.945312 -159.367188 102.125 -159.796875 C 105.351562 -160.015625 107.929688 -159.316406 109.859375 -157.703125 C 111.796875 -156.085938 112.867188 -153.347656 113.078125 -149.484375 C 113.296875 -145.835938 112.4375 -142.9375 110.5 -140.78125 C 108.570312 -138.632812 105.566406 -137.347656 101.484375 -136.921875 L 96.328125 -136.28125 C 81.722656 -134.988281 70.5 -130.316406 62.65625 -122.265625 C 54.820312 -114.210938 50.90625 -103.203125 50.90625 -89.234375 L 50.90625 -11.28125 C 50.90625 -6.976562 49.773438 -3.644531 47.515625 -1.28125 C 45.265625 1.070312 41.988281 2.25 37.6875 2.25 Z M 37.6875 2.25 "/></g></g></g></g></g><g clip-path="url(#e3c21f0b8e)"><path fill="#ffc137" d="M 762.21875 987.6875 C 762.582031 1002.511719 743.867188 1020.683594 728.007812 1019.59375 C 711.953125 1018.472656 705.347656 1007.007812 703.363281 994.777344 C 703.230469 975.425781 717.777344 960.992188 734.878906 961.515625 C 751.609375 962.035156 761.792969 970.101562 762.21875 987.6875 Z M 850.308594 1008.71875 C 834.667969 1009.191406 821.816406 1022.875 822.863281 1038.488281 C 824.046875 1056.175781 835.796875 1062.546875 849.378906 1064.300781 C 865.40625 1063.703125 878.957031 1049.496094 878.710938 1035.773438 C 878.472656 1022.117188 863.964844 1008.300781 850.308594 1008.71875 Z M 991.40625 908.238281 C 974.816406 909.089844 964.378906 917.832031 963.230469 934.742188 C 962.203125 949.917969 976.335938 962.253906 995.742188 962.027344 C 1008.894531 960.355469 1020.332031 953.65625 1020.636719 935.71875 C 1020.910156 919.976562 1007.652344 907.402344 991.40625 908.238281 Z M 1174.203125 880.714844 C 1158.761719 882.074219 1149.453125 891.554688 1148.144531 906.917969 C 1146.757812 923.109375 1159.179688 935.519531 1175.816406 935.484375 C 1193.089844 935.445312 1201.648438 926.050781 1202.398438 913.125 C 1202.265625 893.261719 1189.179688 879.394531 1174.203125 880.714844 Z M 1121.941406 978.910156 C 1105.523438 979.289062 1096.433594 988.675781 1096.175781 1004.21875 C 1095.9375 1018.804688 1104.621094 1028.914062 1119.882812 1029.367188 C 1135.625 1029.832031 1146.585938 1020.796875 1147.242188 1005.246094 C 1147.886719 989.792969 1138.300781 980.304688 1121.941406 978.910156 Z M 1288.757812 982.808594 C 1273.582031 982.421875 1264.027344 993.628906 1263.789062 1009.296875 C 1263.550781 1025.136719 1274.445312 1031.359375 1288.738281 1033.488281 C 1303.988281 1032.035156 1315.007812 1025.070312 1314.914062 1008.480469 C 1314.796875 992.1875 1302.773438 983.160156 1288.757812 982.808594 Z M 1414.046875 918.476562 C 1397.988281 918.542969 1388.355469 927.332031 1388.460938 943.332031 C 1388.554688 958.210938 1399.542969 963.421875 1412.839844 964.808594 C 1427.304688 963.136719 1437.496094 955.933594 1437.335938 940.636719 C 1437.191406 926.589844 1428.394531 918.417969 1414.046875 918.476562 Z M 1414.046875 918.476562 " fill-opacity="1" fill-rule="nonzero"/></g></svg>